<svg xmlns="http://www.w3.org/2000/svg" width="13.64" height="18.827" viewBox="0 0 13.64 18.827">
  <g id="multiple-users-silhouette" transform="translate(-24.021 -8.479)">
    <path id="Path_898" data-name="Path 898" d="M13.842,18.481a4,4,0,1,0-4-4A4,4,0,0,0,13.842,18.481Zm1.7.273h-3.4a5.129,5.129,0,0,0-5.123,5.123v4.152l.011.065.286.09a23.319,23.319,0,0,0,6.965,1.123,14.3,14.3,0,0,0,6.082-1.142l.267-.135h.029V23.876A5.127,5.127,0,0,0,15.539,18.753Z" transform="translate(17 -2)" fill="#fff"/>
  </g>
</svg>
