<svg xmlns="http://www.w3.org/2000/svg" width="19.437" height="20.932" viewBox="0 0 19.437 20.932">
  <path id="Path_892" data-name="Path 892" d="M37.269,3.434a1.436,1.436,0,0,0-1.051-.444H34.723V1.869a1.8,1.8,0,0,0-.549-1.32A1.8,1.8,0,0,0,32.854,0h-.747a1.8,1.8,0,0,0-1.32.549,1.8,1.8,0,0,0-.549,1.32V2.99H25.752V1.869A1.8,1.8,0,0,0,25.2.549,1.8,1.8,0,0,0,23.883,0h-.748a1.8,1.8,0,0,0-1.32.549,1.8,1.8,0,0,0-.549,1.32V2.99h-1.5a1.437,1.437,0,0,0-1.051.444,1.437,1.437,0,0,0-.444,1.051V19.437a1.516,1.516,0,0,0,1.5,1.5H36.217a1.516,1.516,0,0,0,1.5-1.5V4.486A1.437,1.437,0,0,0,37.269,3.434ZM31.732,1.869a.359.359,0,0,1,.374-.374h.747a.36.36,0,0,1,.374.374V5.233a.36.36,0,0,1-.374.374h-.747a.359.359,0,0,1-.374-.374Zm-8.971,0a.36.36,0,0,1,.374-.374h.748a.36.36,0,0,1,.374.374V5.233a.36.36,0,0,1-.374.374h-.748a.36.36,0,0,1-.374-.374ZM36.217,19.437H19.771V7.476H36.217Z" transform="translate(-18.276)" fill="#FF7F00"/>
</svg>
