<svg xmlns="http://www.w3.org/2000/svg" width="31.63" height="30.86" viewBox="0 0 31.63 30.86">
  <g id="call" transform="translate(0 -5.003)">
    <g id="Group_3466" data-name="Group 3466" transform="translate(0 5.003)">
      <g id="Group_3465" data-name="Group 3465" transform="translate(0 0)">
        <path id="Path_902" data-name="Path 902" d="M187.065,120.9a.9.9,0,0,0-.092.307.74.74,0,1,0,1.475.123,1.509,1.509,0,0,1,.031-.338v-.338a8.125,8.125,0,0,0-.43-2.582,7.666,7.666,0,0,0-5.226-4.826,8.154,8.154,0,0,0-1.937-.246,5.212,5.212,0,0,0-.676.031l-.646.092a.718.718,0,0,0,.246,1.414,3.029,3.029,0,0,1,.523-.061h.092c.154,0,.307-.031.461-.031a6.081,6.081,0,0,1,4.365,1.814,6.194,6.194,0,0,1,1.814,4.3v.338Z" transform="translate(-165.21 -104.703)" fill="#fff"/>
        <path id="Path_903" data-name="Path 903" d="M182.261,72.467a.74.74,0,0,0,1.475.123c.031-.338.031-.676.031-1.014a13.78,13.78,0,0,0-.154-1.967,11.791,11.791,0,0,0-10.666-9.775c-.307-.031-.646-.031-.953-.031-.338,0-.676,0-1.014.031s-.676.061-1.014.123a.718.718,0,1,0,.246,1.414c.215-.031.4-.061.615-.092.092,0,.184-.031.277-.031.307-.031.615-.031.891-.031a10.593,10.593,0,0,1,2.982.43,10.217,10.217,0,0,1,4.334,2.582,10.559,10.559,0,0,1,2.305,3.474,10.389,10.389,0,0,1,.738,3.812v.307A2.513,2.513,0,0,0,182.261,72.467Z" transform="translate(-156.348 -55.592)" fill="#fff"/>
        <path id="Path_904" data-name="Path 904" d="M174.074,9.706A15.959,15.959,0,0,0,162.732,5c-.461,0-.922.031-1.383.061a10.663,10.663,0,0,0-1.383.184.718.718,0,1,0,.246,1.414c.215-.031.4-.061.615-.092a4.585,4.585,0,0,1,.646-.061c.43-.031.83-.061,1.26-.061a14.483,14.483,0,0,1,14.509,14.509v.676c0,.184-.031.369-.031.584a.74.74,0,0,0,1.475.123c.031-.461.061-.922.061-1.353A15.916,15.916,0,0,0,174.074,9.706Z" transform="translate(-147.117 -5.003)" fill="#fff"/>
        <path id="Path_905" data-name="Path 905" d="M30.493,41.513l-5.441-2.92c-1.814-.984-1.875-.338-3.781,1.691-.461.492-1.322,1.783-2.336,1.537-2.121-.523-6.086-3.627-7.377-5.041-.615-.676-3.258-3.9-3.289-4.949-.061-1.6,3.443-2.4,2.305-5.441L8.145,20.949C5.871,15.723-.492,24.084.03,27.988,1.383,37.609,18.258,53.163,27.665,48.03,29.755,46.862,32.583,42.773,30.493,41.513Z" transform="translate(0 -18.182)" fill="#fff"/>
      </g>
    </g>
  </g>
</svg>
