<svg xmlns="http://www.w3.org/2000/svg" width="18.789" height="18.331" viewBox="0 0 18.789 18.331">
  <g id="call" transform="translate(0 -5.003)">
    <g id="Group_3466" data-name="Group 3466" transform="translate(0 5.003)">
      <g id="Group_3465" data-name="Group 3465" transform="translate(0 0)">
        <path id="Path_902" data-name="Path 902" d="M183.776,117.7a.536.536,0,0,0-.055.183.44.44,0,1,0,.876.073.9.9,0,0,1,.018-.2v-.2a4.826,4.826,0,0,0-.256-1.534,4.554,4.554,0,0,0-3.1-2.867,4.844,4.844,0,0,0-1.15-.146,3.1,3.1,0,0,0-.4.018l-.383.055a.426.426,0,0,0,.146.84,1.8,1.8,0,0,1,.31-.037h.055c.091,0,.183-.018.274-.018a3.612,3.612,0,0,1,2.593,1.077,3.679,3.679,0,0,1,1.077,2.556v.2Z" transform="translate(-170.794 -108.073)" fill="#fff"/>
        <path id="Path_903" data-name="Path 903" d="M177.025,67.326a.44.44,0,0,0,.876.073c.018-.2.018-.4.018-.6a8.185,8.185,0,0,0-.091-1.169,7,7,0,0,0-6.336-5.806c-.183-.018-.383-.018-.566-.018-.2,0-.4,0-.6.018s-.4.037-.6.073a.426.426,0,1,0,.146.84l.365-.055c.055,0,.11-.018.164-.018.183-.018.365-.018.53-.018a6.292,6.292,0,0,1,1.771.256,6.069,6.069,0,0,1,2.575,1.534,6.272,6.272,0,0,1,1.369,2.063,6.171,6.171,0,0,1,.438,2.264v.183A1.493,1.493,0,0,0,177.025,67.326Z" transform="translate(-161.632 -57.301)" fill="#fff"/>
        <path id="Path_904" data-name="Path 904" d="M168.1,7.8A9.48,9.48,0,0,0,161.364,5c-.274,0-.548.018-.822.037a6.334,6.334,0,0,0-.822.11.426.426,0,1,0,.146.84l.365-.055a2.724,2.724,0,0,1,.383-.037c.256-.018.493-.037.749-.037a8.6,8.6,0,0,1,8.618,8.618v.4c0,.11-.018.219-.018.347a.44.44,0,0,0,.876.073c.018-.274.037-.548.037-.8A9.454,9.454,0,0,0,168.1,7.8Z" transform="translate(-152.089 -5.003)" fill="#fff"/>
        <path id="Path_905" data-name="Path 905" d="M18.113,32.486l-3.232-1.735c-1.077-.584-1.114-.2-2.246,1-.274.292-.785,1.059-1.388.913a13.258,13.258,0,0,1-4.382-2.995c-.365-.4-1.935-2.319-1.954-2.94-.037-.949,2.045-1.424,1.369-3.232L4.838,20.271c-1.351-3.1-5.131,1.862-4.82,4.181.8,5.715,10.828,14.954,16.415,11.905C17.675,35.664,19.354,33.235,18.113,32.486Z" transform="translate(0 -18.628)" fill="#fff"/>
      </g>
    </g>
  </g>
</svg>
