<svg id="clock-circular-outline" xmlns="http://www.w3.org/2000/svg" width="18.006" height="18.005" viewBox="0 0 18.006 18.005">
  <g id="Group_130" data-name="Group 130">
    <path id="Path_106" data-name="Path 106" d="M9,0a9,9,0,1,0,9,9A9.013,9.013,0,0,0,9,0ZM9,16.09A7.087,7.087,0,1,1,16.09,9,7.1,7.1,0,0,1,9,16.09Z" fill="#176eff"/>
    <path id="Path_107" data-name="Path 107" d="M49.594,22.436H45.549V17.571a.741.741,0,1,0-1.483,0v5.606a.741.741,0,0,0,.741.741h4.787a.741.741,0,1,0,0-1.483Z" transform="translate(-35.9 -13.711)" fill="#176eff"/>
  </g>
</svg>
