<svg xmlns="http://www.w3.org/2000/svg" width="52.494" height="64.98" viewBox="0 0 52.494 64.98">
  <g id="cruise" transform="translate(-49.193)">
    <g id="Group_92" data-name="Group 92" transform="translate(49.193)">
      <g id="Group_91" data-name="Group 91" transform="translate(0)">
        <path id="Path_50" data-name="Path 50" d="M101.243,34.857a3.155,3.155,0,0,0-2.255-1.523c-.553-.084-1.219-.194-1.975-.337l-.791-6.328a3.192,3.192,0,0,0-1.946-2.548l-.224-1.793a3.191,3.191,0,0,0-1.946-2.548l-.224-1.793a3.192,3.192,0,0,0-1.946-2.548l-.224-1.793a3.193,3.193,0,0,0-3.163-2.793H80.7l-.9-8.959A2.1,2.1,0,0,0,77.714,0H73.167a2.1,2.1,0,0,0-2.092,1.894l-.9,8.959H64.333a3.193,3.193,0,0,0-3.163,2.792l-.224,1.793A3.191,3.191,0,0,0,59,17.986l-.224,1.793a3.191,3.191,0,0,0-1.946,2.548L56.6,24.121a3.191,3.191,0,0,0-1.946,2.548L53.867,33c-.756.143-1.421.253-1.975.337a3.181,3.181,0,0,0-2.5,4.257l9.1,24.564a10.115,10.115,0,0,0-2.586-.294,1.017,1.017,0,0,0,0,2.035,7.828,7.828,0,0,1,2.932.49,11.048,11.048,0,0,0,7.153,0,9.013,9.013,0,0,1,5.864,0,9.871,9.871,0,0,0,3.575.595h.013a9.887,9.887,0,0,0,3.565-.595,9.03,9.03,0,0,1,5.871,0,11.071,11.071,0,0,0,7.159,0,7.85,7.85,0,0,1,2.937-.491,1.017,1.017,0,1,0,0-2.035,10.138,10.138,0,0,0-2.586.293l9.1-24.563A3.182,3.182,0,0,0,101.243,34.857Zm-8.184-8.946a1.155,1.155,0,0,1,1.144,1.01l.7,5.638a50.469,50.469,0,0,1-16.337-6.648H93.059ZM73.1,2.1a.067.067,0,0,1,.067-.061h4.547a.067.067,0,0,1,.067.061l.876,8.757H72.223ZM58.848,22.58a1.155,1.155,0,0,1,1.144-1.01H63.5a1.017,1.017,0,0,0,0-2.035H60.856l.162-1.3a1.155,1.155,0,0,1,1.144-1.01h18.7a1.017,1.017,0,0,0,0-2.035H63.027l.162-1.3a1.155,1.155,0,0,1,1.144-1.01H86.547a1.155,1.155,0,0,1,1.144,1.01l.162,1.3H85.208a1.017,1.017,0,0,0,0,2.035h3.51a1.155,1.155,0,0,1,1.144,1.01l.162,1.3H67.844a1.017,1.017,0,0,0,0,2.035H90.888a1.155,1.155,0,0,1,1.144,1.01l.162,1.3H58.686Zm-2.171,4.341a1.155,1.155,0,0,1,1.144-1.01H72.31a50.465,50.465,0,0,1-16.337,6.648Zm42.9,9.962L89.966,62.837a9.175,9.175,0,0,1-1.507.108,7.849,7.849,0,0,1-2.937-.491,11.064,11.064,0,0,0-7.158,0,7.833,7.833,0,0,1-1.907.444V36.831a1.017,1.017,0,0,0-2.035,0V62.9a7.8,7.8,0,0,1-1.924-.446,11.046,11.046,0,0,0-7.152,0,7.835,7.835,0,0,1-2.933.49,9.18,9.18,0,0,1-1.5-.107L51.3,36.883a1.156,1.156,0,0,1,.088-.992,1.117,1.117,0,0,1,.806-.545c5.295-.8,15.233-3.046,23.244-9.161,8.011,6.115,17.95,8.362,23.244,9.161a1.117,1.117,0,0,1,.806.545A1.156,1.156,0,0,1,99.578,36.883Z" transform="translate(-49.193)" fill="#fff"/>
      </g>
    </g>
    <g id="Group_94" data-name="Group 94" transform="translate(74.423 29.302)">
      <g id="Group_93" data-name="Group 93" transform="translate(0)">
        <path id="Path_51" data-name="Path 51" d="M249,230.881a1.018,1.018,0,0,0-1.017,1.017v2.17a1.017,1.017,0,0,0,2.035,0V231.9A1.018,1.018,0,0,0,249,230.881Z" transform="translate(-247.983 -230.881)" fill="#fff"/>
      </g>
    </g>
  </g>
</svg>
