<svg xmlns="http://www.w3.org/2000/svg" width="21.789" height="23.465" viewBox="0 0 21.789 23.465">
  <path id="Path_894" data-name="Path 894" d="M39.567,3.85a1.61,1.61,0,0,0-1.178-.5H36.713V2.1A2.018,2.018,0,0,0,36.1.616,2.018,2.018,0,0,0,34.617,0H33.78A2.017,2.017,0,0,0,32.3.616a2.017,2.017,0,0,0-.616,1.48V3.352H26.657V2.1a2.017,2.017,0,0,0-.616-1.48A2.017,2.017,0,0,0,24.561,0h-.838a2.018,2.018,0,0,0-1.48.616,2.018,2.018,0,0,0-.616,1.48V3.352H19.952a1.611,1.611,0,0,0-1.179.5,1.611,1.611,0,0,0-.5,1.179V21.789a1.7,1.7,0,0,0,1.676,1.676H38.388a1.7,1.7,0,0,0,1.676-1.676V5.028A1.611,1.611,0,0,0,39.567,3.85ZM33.361,2.1a.4.4,0,0,1,.419-.419h.838a.4.4,0,0,1,.419.419V5.866a.4.4,0,0,1-.419.419h-.838a.4.4,0,0,1-.419-.419ZM23.3,2.1a.4.4,0,0,1,.419-.419h.838a.4.4,0,0,1,.419.419V5.866a.4.4,0,0,1-.419.419h-.838a.4.4,0,0,1-.419-.419ZM38.388,21.789H19.952V8.38H38.388Z" transform="translate(-18.276)" fill="#fff"/>
</svg>
