<svg xmlns="http://www.w3.org/2000/svg" width="12.988" height="24.943" viewBox="0 0 12.988 24.943">
  <g id="dollar-symbol" transform="translate(-122.611)">
    <path id="Path_901" data-name="Path 901" d="M135.416,15.186a5.032,5.032,0,0,0-.438-1.064,3.6,3.6,0,0,0-.738-.884,8.809,8.809,0,0,0-.863-.7,8.412,8.412,0,0,0-1.051-.592q-.668-.327-1.057-.487t-1.128-.438q-.654-.25-.974-.383t-.842-.376a4.907,4.907,0,0,1-.779-.431,6.125,6.125,0,0,1-.55-.459,1.567,1.567,0,0,1-.411-.578,1.872,1.872,0,0,1,.717-2.213,3.619,3.619,0,0,1,2.158-.6,4.639,4.639,0,0,1,1.19.16,6.224,6.224,0,0,1,1.037.362,7.2,7.2,0,0,1,.815.445q.383.244.543.369c.107.084.174.139.2.167a.444.444,0,0,0,.376.1.38.38,0,0,0,.32-.223l1.128-2.032A.4.4,0,0,0,135,4.8c-.056-.056-.125-.121-.209-.195s-.264-.209-.543-.4a6.719,6.719,0,0,0-.884-.522,8.937,8.937,0,0,0-1.211-.466,7.721,7.721,0,0,0-1.538-.32V.445A.428.428,0,0,0,130.169,0H128.29a.428.428,0,0,0-.313.132.428.428,0,0,0-.132.313V2.951a6.369,6.369,0,0,0-3.55,1.865,4.76,4.76,0,0,0-1.364,3.369,4.833,4.833,0,0,0,.118,1.086,5.557,5.557,0,0,0,.292.926,3.406,3.406,0,0,0,.494.807,8.645,8.645,0,0,0,.605.682,4.916,4.916,0,0,0,.745.591q.459.306.787.494t.87.431q.543.244.856.369t.856.348q.752.292,1.114.452t.919.445a3.814,3.814,0,0,1,.814.522,2.616,2.616,0,0,1,.466.585,1.41,1.41,0,0,1,.209.738,1.949,1.949,0,0,1-.856,1.7,3.374,3.374,0,0,1-1.984.6,4.863,4.863,0,0,1-1.03-.111,7.272,7.272,0,0,1-3.382-1.74l-.028-.028a.345.345,0,0,0-.334-.125.432.432,0,0,0-.32.167L122.709,19a.423.423,0,0,0,.028.571q.07.084.244.251a8.055,8.055,0,0,0,.647.522,8.542,8.542,0,0,0,2.443,1.288,8.788,8.788,0,0,0,1.775.431V24.5a.451.451,0,0,0,.445.446h1.879a.428.428,0,0,0,.445-.445V22.062a5.977,5.977,0,0,0,3.6-1.9,5.3,5.3,0,0,0,1.385-3.668A4.576,4.576,0,0,0,135.416,15.186Z" transform="translate(0)" fill="#fff"/>
  </g>
</svg>
