<svg xmlns="http://www.w3.org/2000/svg" width="31.818" height="25" viewBox="0 0 31.818 25">
  <g id="black-back-closed-envelope-shape_1_" data-name="black-back-closed-envelope-shape (1)" transform="translate(0 -59.013)">
    <g id="Group_3575" data-name="Group 3575" transform="translate(0 59.013)">
      <path id="Path_932" data-name="Path 932" d="M44.944,333.245a2.719,2.719,0,0,0,1.862-.7l-9.015-9.015-.624.449q-1.012.746-1.643,1.163a10.117,10.117,0,0,1-1.678.852,5.114,5.114,0,0,1-1.953.435h-.035a5.112,5.112,0,0,1-1.953-.435,10.085,10.085,0,0,1-1.678-.852q-.631-.417-1.643-1.163c-.188-.138-.4-.289-.622-.451l-9.016,9.017a2.72,2.72,0,0,0,1.862.7Z" transform="translate(-15.967 -308.245)" fill="#fff"/>
      <path id="Path_933" data-name="Path 933" d="M1.794,200.1A9.413,9.413,0,0,1,0,198.555V212.27l7.945-7.945Q5.561,202.66,1.794,200.1Z" transform="translate(0 -190.494)" fill="#fff"/>
      <path id="Path_934" data-name="Path 934" d="M419.476,200.1q-3.628,2.455-6.167,4.228l7.942,7.943V198.555A9.8,9.8,0,0,1,419.476,200.1Z" transform="translate(-389.433 -190.494)" fill="#fff"/>
      <path id="Path_935" data-name="Path 935" d="M28.983,59.013H2.847a2.535,2.535,0,0,0-2.1.923,3.582,3.582,0,0,0-.737,2.308,4.149,4.149,0,0,0,.976,2.424A8.809,8.809,0,0,0,3.06,66.719q.6.426,3.64,2.53c1.093.757,2.043,1.417,2.86,1.987.7.485,1.3.905,1.792,1.254l.265.189.49.353q.577.417.959.675t.923.577a5.387,5.387,0,0,0,1.021.479,2.825,2.825,0,0,0,.888.16h.035a2.826,2.826,0,0,0,.888-.16,5.374,5.374,0,0,0,1.021-.479q.541-.32.923-.577t.959-.675l.489-.352.265-.189,1.8-1.249,6.513-4.522a8.445,8.445,0,0,0,2.166-2.184,4.7,4.7,0,0,0,.869-2.681,2.864,2.864,0,0,0-2.841-2.841Z" transform="translate(-0.006 -59.013)" fill="#fff"/>
    </g>
  </g>
</svg>
