<svg xmlns="http://www.w3.org/2000/svg" width="54.449" height="61.796" viewBox="0 0 54.449 61.796">
  <g id="backpack" transform="translate(-30.437)">
    <g id="Group_73" data-name="Group 73" transform="translate(30.437)">
      <g id="Group_72" data-name="Group 72" transform="translate(0)">
        <path id="Path_41" data-name="Path 41" d="M81.8,1.05H72.035A2.035,2.035,0,0,0,70.257,0h-2.1a2.035,2.035,0,0,0-1.778,1.05H48.944A2.035,2.035,0,0,0,47.165,0h-2.1a2.035,2.035,0,0,0-1.778,1.05H33.52a3.087,3.087,0,0,0-3.083,3.083v8.4a3.087,3.087,0,0,0,3.083,3.083h3.424a3.068,3.068,0,0,0-.21,1.115v1.115H35.62a3.087,3.087,0,0,0-3.083,3.083v6.3a3.087,3.087,0,0,0,3.083,3.083h1.115v2.23H34.57a3.087,3.087,0,0,0-3.083,3.083V54.515A3.087,3.087,0,0,0,34.57,57.6h2.852a7.29,7.29,0,0,0,6.595,4.2h27.29A7.29,7.29,0,0,0,77.9,57.6h2.852a3.087,3.087,0,0,0,3.083-3.083V35.622a3.087,3.087,0,0,0-3.083-3.083H78.588v-2.23H79.7a3.087,3.087,0,0,0,3.083-3.083v-6.3A3.087,3.087,0,0,0,79.7,17.843H78.588V16.728a3.068,3.068,0,0,0-.21-1.115H81.8a3.087,3.087,0,0,0,3.083-3.083v-8.4A3.087,3.087,0,0,0,81.8,1.05ZM34.5,20.927a1.116,1.116,0,0,1,1.115-1.115h1.115v2.23H34.5ZM35.62,28.34A1.116,1.116,0,0,1,34.5,27.225V24.01h2.23v4.33Zm-2.165,7.282a1.116,1.116,0,0,1,1.115-1.115h2.165v6.429h-3.28ZM34.57,55.63a1.116,1.116,0,0,1-1.115-1.115V42.9h3.28V54.515a7.292,7.292,0,0,0,.085,1.115ZM78.588,19.812H79.7a1.116,1.116,0,0,1,1.115,1.115v1.115h-2.23Zm0,4.2h2.23v3.214A1.116,1.116,0,0,1,79.7,28.34H78.588V24.01Zm0,10.5h2.165a1.116,1.116,0,0,1,1.115,1.115v5.314h-3.28Zm0,20.008V42.9h3.28V54.515a1.116,1.116,0,0,1-1.115,1.115H78.5A7.294,7.294,0,0,0,78.588,54.515ZM68.092,2.034a.066.066,0,0,1,.066-.066h2.1a.066.066,0,0,1,.066.066v15.81h-2.23V2.034Zm-1.05,17.844a.066.066,0,0,1,.066-.066h1.115v1.115a.984.984,0,0,0,1.968,0V19.812h1.115a.066.066,0,0,1,.066.066v4.2a.066.066,0,0,1-.066.066h-4.2a.066.066,0,0,1-.066-.066ZM49.2,7.216h9.512a.984.984,0,0,0,0-1.968H49.2V3.018H66.124v2.23H62.909a.984.984,0,1,0,0,1.968h3.215v6.429H64.766l-.554-2.77A3.092,3.092,0,0,0,61.189,8.4H54.134a3.092,3.092,0,0,0-3.023,2.478l-.554,2.77H49.2V7.216Zm13.56,6.429H52.564l.477-2.384a1.118,1.118,0,0,1,1.093-.9h7.054a1.118,1.118,0,0,1,1.093.9ZM45,2.034a.066.066,0,0,1,.066-.066h2.1a.065.065,0,0,1,.065.064v0s0,.005,0,.008v15.8H45Zm-1.05,17.844a.066.066,0,0,1,.066-.066h1.115v1.115a.984.984,0,0,0,1.968,0V19.812h1.115a.066.066,0,0,1,.066.066v4.2a.066.066,0,0,1-.066.066h-4.2a.066.066,0,0,1-.066-.066ZM32.405,4.133A1.116,1.116,0,0,1,33.52,3.018h9.512v2.23H32.405Zm1.115,9.512a1.116,1.116,0,0,1-1.115-1.115V7.216H43.032v6.429H33.52Zm43.1,40.87a5.32,5.32,0,0,1-5.314,5.314H44.017A5.32,5.32,0,0,1,38.7,54.515V16.728a1.116,1.116,0,0,1,1.115-1.115h3.214V18.1a2.034,2.034,0,0,0-1.05,1.778v4.2a2.036,2.036,0,0,0,2.034,2.034h4.2a2.036,2.036,0,0,0,2.034-2.034v-4.2A2.035,2.035,0,0,0,49.2,18.1V15.613H66.124V18.1a2.034,2.034,0,0,0-1.05,1.778v4.2a2.036,2.036,0,0,0,2.034,2.034h4.2a2.036,2.036,0,0,0,2.034-2.034v-4.2a2.035,2.035,0,0,0-1.05-1.778V15.613h3.215a1.116,1.116,0,0,1,1.115,1.115V54.515Zm6.3-49.267H79.7a.984.984,0,1,0,0,1.968h3.214V12.53A1.116,1.116,0,0,1,81.8,13.645H72.291V7.216h3.215a.984.984,0,1,0,0-1.968H72.291V3.018H81.8a1.116,1.116,0,0,1,1.115,1.115Z" transform="translate(-30.437)" fill="#fff"/>
      </g>
    </g>
    <g id="Group_75" data-name="Group 75" transform="translate(40.933 32.538)">
      <g id="Group_74" data-name="Group 74" transform="translate(0)">
        <path id="Path_42" data-name="Path 42" d="M147.774,269.588h-27.29a3.087,3.087,0,0,0-3.083,3.083v18.893a3.087,3.087,0,0,0,3.083,3.083h1.049a.984.984,0,1,0,0-1.968h-1.049a1.117,1.117,0,0,1-1.115-1.115V279.339a4.108,4.108,0,0,0,2.165.614h9.512v3.214a2.036,2.036,0,0,0,2.034,2.034h2.1a2.036,2.036,0,0,0,2.034-2.034v-3.214h2.165a.984.984,0,0,0,0-1.968h-2.165v-.066a2.036,2.036,0,0,0-2.034-2.034h-2.1a2.036,2.036,0,0,0-2.034,2.034v.066h-9.512a2.167,2.167,0,0,1-2.165-2.165v-3.149a1.117,1.117,0,0,1,1.115-1.115h27.29a1.117,1.117,0,0,1,1.115,1.115v3.149a2.167,2.167,0,0,1-2.165,2.165h-3.149a.984.984,0,0,0,0,1.968h3.149a4.108,4.108,0,0,0,2.165-.614v12.225a1.117,1.117,0,0,1-1.115,1.115H125.732a.984.984,0,1,0,0,1.968h22.042a3.087,3.087,0,0,0,3.083-3.083V272.671A3.087,3.087,0,0,0,147.774,269.588Zm-14.76,8.331a.066.066,0,0,1,.066-.066h2.1a.066.066,0,0,1,.066.066v1.048h0v4.2a.066.066,0,0,1-.066.066h-2.1a.066.066,0,0,1-.066-.066Z" transform="translate(-117.401 -269.588)" fill="#fff"/>
      </g>
    </g>
    <g id="Group_77" data-name="Group 77" transform="translate(53.529 19.943)">
      <g id="Group_76" data-name="Group 76">
        <path id="Path_43" data-name="Path 43" d="M226.94,165.231h-2.1a3.083,3.083,0,0,0,0,6.167h2.1a3.083,3.083,0,0,0,0-6.167Zm0,4.2h-2.1a1.115,1.115,0,0,1,0-2.23h2.1a1.115,1.115,0,0,1,0,2.23Z" transform="translate(-221.757 -165.231)" fill="#fff"/>
      </g>
    </g>
  </g>
</svg>
