<svg id="facebook-logo" xmlns="http://www.w3.org/2000/svg" width="10.068" height="18.623" viewBox="0 0 10.068 18.623">
  <path id="Path_717" data-name="Path 717" d="M31.766,0,29.351,0a4.241,4.241,0,0,0-4.466,4.583V6.7H22.457a.38.38,0,0,0-.38.38v3.062a.38.38,0,0,0,.38.38h2.428v7.725a.38.38,0,0,0,.38.38h3.168a.38.38,0,0,0,.38-.38V10.517h2.839a.38.38,0,0,0,.38-.38V7.076a.38.38,0,0,0-.38-.38h-2.84V4.9c0-.861.205-1.3,1.327-1.3h1.627a.38.38,0,0,0,.38-.38V.384A.38.38,0,0,0,31.766,0Z" transform="translate(-22.077)" fill="#fff"/>
</svg>
