<svg id="instagram_4_" data-name="instagram (4)" xmlns="http://www.w3.org/2000/svg" width="17.019" height="17.018" viewBox="0 0 17.019 17.018">
  <g id="Group_152" data-name="Group 152">
    <g id="Group_151" data-name="Group 151">
      <path id="Path_445" data-name="Path 445" d="M11.7,0H5.318A5.319,5.319,0,0,0,0,5.318V11.7a5.319,5.319,0,0,0,5.318,5.318H11.7A5.319,5.319,0,0,0,17.018,11.7V5.318A5.319,5.319,0,0,0,11.7,0Zm3.723,11.7A3.727,3.727,0,0,1,11.7,15.423H5.318A3.727,3.727,0,0,1,1.6,11.7V5.318A3.727,3.727,0,0,1,5.318,1.6H11.7a3.727,3.727,0,0,1,3.723,3.723Z" fill="#fff"/>
    </g>
  </g>
  <g id="Group_154" data-name="Group 154" transform="translate(4.255 4.255)">
    <g id="Group_153" data-name="Group 153">
      <path id="Path_446" data-name="Path 446" d="M132.255,128a4.255,4.255,0,1,0,4.255,4.255A4.255,4.255,0,0,0,132.255,128Zm0,6.914a2.659,2.659,0,1,1,2.659-2.659A2.663,2.663,0,0,1,132.255,134.914Z" transform="translate(-128 -128)" fill="#fff"/>
    </g>
  </g>
  <g id="Group_156" data-name="Group 156" transform="translate(12.516 3.369)">
    <g id="Group_155" data-name="Group 155">
      <ellipse id="Ellipse_28" data-name="Ellipse 28" cx="0.567" cy="0.567" rx="0.567" ry="0.567" fill="#fff"/>
    </g>
  </g>
</svg>
