<svg xmlns="http://www.w3.org/2000/svg" width="19.789" height="19.788" viewBox="0 0 19.789 19.788">
  <g id="lifebuoy" transform="translate(0 0)">
    <g id="Group_3467" data-name="Group 3467" transform="translate(0 0)">
      <path id="Path_906" data-name="Path 906" d="M16.891,2.9A9.894,9.894,0,1,0,2.9,16.89h0A9.894,9.894,0,0,0,16.891,2.9Zm-6.1-1.049h0a8.015,8.015,0,0,1,4.154,1.72L13.021,5.495a5.352,5.352,0,0,0-2.228-.922ZM1.849,8.995A8.015,8.015,0,0,1,3.569,4.841L5.5,6.769a5.369,5.369,0,0,0-.924,2.226Zm4.92,5.3a5.368,5.368,0,0,0,2.226.924V17.94a8.015,8.015,0,0,1-4.154-1.721Zm3.126-.8h0a3.6,3.6,0,1,1,3.6-3.6A3.6,3.6,0,0,1,9.894,13.492Zm6.325,1.455L14.292,13.02a5.369,5.369,0,0,0,.924-2.226H17.94A8.015,8.015,0,0,1,16.219,14.947Z" transform="translate(0 0)" fill="#fff"/>
    </g>
  </g>
</svg>
