<svg xmlns="http://www.w3.org/2000/svg" width="28.486" height="26.526" viewBox="0 0 28.486 26.526">
  <g id="link_1_" data-name="link (1)" transform="translate(0 -16.6)">
    <g id="Group_3518" data-name="Group 3518" transform="translate(0 16.6)">
      <path id="Path_914" data-name="Path 914" d="M15.057,189.28a.794.794,0,0,0,0,1.127,3.315,3.315,0,0,1,0,4.685l-6.785,6.785a3.315,3.315,0,0,1-4.685,0l-1.021-1.021a3.315,3.315,0,0,1,0-4.685l6.785-6.785a.8.8,0,0,0-1.127-1.127L1.44,195.045a4.9,4.9,0,0,0,0,6.939L2.46,203A4.914,4.914,0,0,0,9.4,203l6.785-6.785a4.914,4.914,0,0,0,0-6.939A.794.794,0,0,0,15.057,189.28Z" transform="translate(0 -177.911)" fill="#fff"/>
      <path id="Path_915" data-name="Path 915" d="M200.478,19.054l-1.021-1.021a4.914,4.914,0,0,0-6.939,0l-6.785,6.785a4.914,4.914,0,0,0,0,6.939.8.8,0,0,0,1.127-1.127,3.315,3.315,0,0,1,0-4.685l6.785-6.785a3.315,3.315,0,0,1,4.685,0l1.021,1.021a3.315,3.315,0,0,1,0,4.685l-6.785,6.785a.8.8,0,0,0,.561,1.363.777.777,0,0,0,.561-.236l6.785-6.785a4.907,4.907,0,0,0,.006-6.939Z" transform="translate(-173.426 -16.6)" fill="#fff"/>
    </g>
  </g>
</svg>
