<svg xmlns="http://www.w3.org/2000/svg" width="27.281" height="22.958" viewBox="0 0 27.281 22.958">
  <path id="Path_898" data-name="Path 898" d="M16.463,10.288a4.957,4.957,0,0,1,2.307,3.683,4,4,0,1,0-2.307-3.683Zm-2.621,8.192a4,4,0,1,0-4-4A4,4,0,0,0,13.842,18.481Zm1.7.273h-3.4a5.129,5.129,0,0,0-5.123,5.123v4.152l.011.065.286.09a23.319,23.319,0,0,0,6.965,1.123,14.3,14.3,0,0,0,6.082-1.142l.267-.135h.029V23.876A5.127,5.127,0,0,0,15.539,18.753Zm6.619-4.13H18.789a4.931,4.931,0,0,1-1.522,3.435,6.087,6.087,0,0,1,4.348,5.825v1.279a13.786,13.786,0,0,0,5.369-1.128l.267-.136h.029V19.745A5.128,5.128,0,0,0,22.158,14.623ZM6.821,14.35a3.974,3.974,0,0,0,2.128-.618,4.952,4.952,0,0,1,1.861-3.158c0-.075.011-.149.011-.225a4,4,0,1,0-4,4Zm3.593,3.707a4.934,4.934,0,0,1-1.521-3.415c-.125-.009-.249-.019-.376-.019H5.123A5.129,5.129,0,0,0,0,19.745V23.9l.011.064.286.09a24.019,24.019,0,0,0,5.769,1.084V23.883A6.088,6.088,0,0,1,10.414,18.057Z" transform="translate(0 -6.348)" fill="#fff"/>
</svg>
