<svg id="pinterest_1_" data-name="pinterest (1)" xmlns="http://www.w3.org/2000/svg" width="14.555" height="18.203" viewBox="0 0 14.555 18.203">
  <path id="Path_882" data-name="Path 882" d="M80.593,63.781c-5.131,0-7.717,3.562-7.717,6.532,0,1.8.7,3.4,2.212,3.995a.374.374,0,0,0,.541-.261l.22-.84a.5.5,0,0,0-.155-.582,2.949,2.949,0,0,1-.713-2.051A5.037,5.037,0,0,1,80.3,65.566c2.9,0,4.493,1.716,4.493,4.006,0,3.014-1.378,5.559-3.424,5.559a1.634,1.634,0,0,1-1.7-2.015,21.865,21.865,0,0,0,.954-3.71,1.419,1.419,0,0,0-1.457-1.57c-1.155,0-2.082,1.157-2.082,2.707a3.911,3.911,0,0,0,.345,1.655l-1.39,5.7A11.383,11.383,0,0,0,76,81.869a.145.145,0,0,0,.257.06,11.084,11.084,0,0,0,1.95-3.423c.133-.465.76-2.874.76-2.874a3.121,3.121,0,0,0,2.638,1.3c3.47,0,5.826-3.064,5.826-7.166C87.429,66.67,84.717,63.781,80.593,63.781Z" transform="translate(-72.876 -63.781)" fill="#fff"/>
</svg>
