<svg xmlns="http://www.w3.org/2000/svg" width="67.266" height="40.422" viewBox="0 0 67.266 40.422">
  <g id="five-stars-outlines" transform="translate(0 -94.386)">
    <g id="Group_95" data-name="Group 95" transform="translate(0 94.386)">
      <path id="Path_52" data-name="Path 52" d="M96.059,113.787a1.193,1.193,0,0,0,.929-.422,1.457,1.457,0,0,0,.274-1.209l-.811-4.727a1.359,1.359,0,0,1,.31-.955l3.434-3.347a1.292,1.292,0,0,0-.751-2.31l-4.745-.69a1.358,1.358,0,0,1-.812-.59l-2.122-4.3a1.292,1.292,0,0,0-2.429,0l-2.122,4.3a1.358,1.358,0,0,1-.812.59l-4.746.69a1.292,1.292,0,0,0-.751,2.31l3.434,3.347a1.357,1.357,0,0,1,.31.955l-.811,4.727a1.458,1.458,0,0,0,.274,1.209,1.335,1.335,0,0,0,1.691.219l4.245-2.232a1.348,1.348,0,0,1,1,0l4.244,2.232A1.636,1.636,0,0,0,96.059,113.787Zm-5.508-4.238a2.833,2.833,0,0,0-1.3.293l-3.613,1.9.69-4.024a3.029,3.029,0,0,0-.8-2.465L82.607,102.4l4.04-.587a3.029,3.029,0,0,0,2.1-1.524l1.807-3.66,1.807,3.66a3.029,3.029,0,0,0,2.1,1.524l4.04.587-2.923,2.849a3.029,3.029,0,0,0-.8,2.465l.69,4.024-3.613-1.9A2.837,2.837,0,0,0,90.551,109.549Z" transform="translate(-68.978 -94.386)" fill="#fff"/>
      <path id="Path_53" data-name="Path 53" d="M261.805,113.787a1.193,1.193,0,0,0,.929-.422,1.457,1.457,0,0,0,.274-1.209l-.811-4.727a1.358,1.358,0,0,1,.31-.955l3.434-3.347a1.292,1.292,0,0,0-.751-2.31l-4.745-.69a1.358,1.358,0,0,1-.812-.59l-2.122-4.3a1.292,1.292,0,0,0-2.429,0l-2.122,4.3a1.358,1.358,0,0,1-.812.59l-4.746.69a1.292,1.292,0,0,0-.751,2.31l3.434,3.347a1.358,1.358,0,0,1,.31.955l-.811,4.727a1.457,1.457,0,0,0,.274,1.209,1.336,1.336,0,0,0,1.691.219l4.244-2.232a1.347,1.347,0,0,1,1,0l4.245,2.232A1.635,1.635,0,0,0,261.805,113.787Zm-5.508-4.238a2.834,2.834,0,0,0-1.3.293l-3.613,1.9.69-4.024a3.029,3.029,0,0,0-.8-2.465l-2.923-2.849,4.04-.587a3.029,3.029,0,0,0,2.1-1.524l1.807-3.66,1.807,3.66a3.029,3.029,0,0,0,2.1,1.524l4.04.587-2.923,2.849a3.028,3.028,0,0,0-.8,2.465l.69,4.024-3.613-1.9A2.837,2.837,0,0,0,256.3,109.549Z" transform="translate(-211.154 -94.386)" fill="#fff"/>
      <path id="Path_54" data-name="Path 54" d="M19.032,248.647l-4.746-.69a1.358,1.358,0,0,1-.812-.59l-2.122-4.3a1.37,1.37,0,0,0-1.215-.851,1.37,1.37,0,0,0-1.215.851l-2.122,4.3a1.357,1.357,0,0,1-.812.59l-4.745.69a1.37,1.37,0,0,0-1.185.892,1.371,1.371,0,0,0,.434,1.419L3.927,254.3a1.359,1.359,0,0,1,.31.955l-.811,4.726a1.457,1.457,0,0,0,.274,1.209,1.336,1.336,0,0,0,1.691.219l4.244-2.231a1.346,1.346,0,0,1,1,0l4.244,2.231a1.637,1.637,0,0,0,.762.2,1.193,1.193,0,0,0,.929-.423,1.457,1.457,0,0,0,.274-1.209l-.81-4.726a1.358,1.358,0,0,1,.31-.955l3.434-3.347a1.292,1.292,0,0,0-.751-2.31Zm-3.874,4.436a3.029,3.029,0,0,0-.8,2.465l.69,4.023-3.613-1.9a3.012,3.012,0,0,0-2.592,0l-3.613,1.9.69-4.023a3.029,3.029,0,0,0-.8-2.466l-2.923-2.849,4.04-.587a3.028,3.028,0,0,0,2.1-1.524l1.807-3.66,1.807,3.66a3.028,3.028,0,0,0,2.1,1.524l4.04.587Z" transform="translate(0 -221.194)" fill="#fff"/>
      <path id="Path_55" data-name="Path 55" d="M184.254,248.647l-4.746-.69a1.358,1.358,0,0,1-.812-.59l-2.122-4.3a1.292,1.292,0,0,0-2.429,0l-2.122,4.3a1.357,1.357,0,0,1-.812.59l-4.745.69a1.292,1.292,0,0,0-.751,2.31l3.434,3.347a1.359,1.359,0,0,1,.31.955l-.811,4.726a1.458,1.458,0,0,0,.274,1.209,1.336,1.336,0,0,0,1.691.219l4.244-2.231a1.346,1.346,0,0,1,1,0l4.244,2.231a1.636,1.636,0,0,0,.762.2,1.192,1.192,0,0,0,.929-.423,1.458,1.458,0,0,0,.274-1.209l-.811-4.726a1.358,1.358,0,0,1,.31-.955L185,250.957a1.292,1.292,0,0,0-.751-2.311Zm-3.874,4.436a3.029,3.029,0,0,0-.8,2.465l.69,4.023-3.613-1.9a3.012,3.012,0,0,0-2.592,0l-3.613,1.9.69-4.023a3.029,3.029,0,0,0-.8-2.466l-2.923-2.849,4.04-.587a3.029,3.029,0,0,0,2.1-1.524l1.807-3.66,1.807,3.66a3.028,3.028,0,0,0,2.1,1.524l4.04.587Z" transform="translate(-141.727 -221.194)" fill="#fff"/>
      <path id="Path_56" data-name="Path 56" d="M350.225,250.956a1.292,1.292,0,0,0-.751-2.31l-4.746-.69a1.358,1.358,0,0,1-.812-.59l-2.122-4.3a1.292,1.292,0,0,0-2.429,0l-2.122,4.3a1.358,1.358,0,0,1-.812.59l-4.745.69a1.292,1.292,0,0,0-.751,2.311l3.434,3.347a1.36,1.36,0,0,1,.31.955l-.811,4.726a1.457,1.457,0,0,0,.274,1.209,1.193,1.193,0,0,0,.929.422,1.632,1.632,0,0,0,.762-.2l4.244-2.231a1.345,1.345,0,0,1,1,0l4.245,2.231a1.336,1.336,0,0,0,1.691-.219,1.458,1.458,0,0,0,.274-1.209l-.811-4.726a1.358,1.358,0,0,1,.31-.955Zm-4.625,2.125a3.029,3.029,0,0,0-.8,2.465l.69,4.023-3.613-1.9a3.012,3.012,0,0,0-2.592,0l-3.613,1.9.69-4.023a3.03,3.03,0,0,0-.8-2.465l-2.923-2.849,4.04-.587a3.028,3.028,0,0,0,2.1-1.524l1.807-3.66,1.807,3.66a3.029,3.029,0,0,0,2.1,1.524l4.04.587Z" transform="translate(-283.452 -221.193)" fill="#fff"/>
    </g>
  </g>
</svg>
