<svg xmlns="http://www.w3.org/2000/svg" width="63.331" height="67.886" viewBox="0 0 63.331 67.886">
  <g id="Group_42" data-name="Group 42" transform="translate(-331.999 -2097.393)">
    <path id="Path_17" data-name="Path 17" d="M22.973,59.182H21.842V50.134a1.131,1.131,0,1,0,0-2.262V38.825a1.131,1.131,0,1,0,0-2.262V25.255h1.131A1.068,1.068,0,0,0,24.1,24.124V2.637a3.393,3.393,0,0,0-6.785,0V24.124a1.068,1.068,0,0,0,1.131,1.131H19.58V36.564a1.131,1.131,0,1,0,0,2.262v9.047a1.131,1.131,0,1,0,0,2.262v9.047H18.449a2.268,2.268,0,0,0-2.262,2.262v1.131a2.268,2.268,0,0,0,2.262,2.262H19.58v1.131a1.131,1.131,0,0,0,2.262,0V64.836h1.131a2.268,2.268,0,0,0,2.262-2.262V61.443A2.268,2.268,0,0,0,22.973,59.182ZM19.58,22.993v-1.81l2.262-2.262v4.071H19.58Zm0-7.464,2.262-2.262v2.488L19.58,18.017ZM20.711,1.506a1.068,1.068,0,0,1,1.131,1.131V10.1L19.58,12.362V2.637A1.069,1.069,0,0,1,20.711,1.506Zm2.262,61.069H18.449V61.444h4.524Z" transform="translate(315.813 2098.181)" fill="#fff"/>
    <path id="Path_18" data-name="Path 18" d="M432.573,59.182h-1.131V50.134a1.131,1.131,0,1,0,0-2.262V38.825a1.131,1.131,0,1,0,0-2.262V25.255h1.131a1.068,1.068,0,0,0,1.131-1.131V2.637a3.393,3.393,0,1,0-6.785,0V24.124a1.068,1.068,0,0,0,1.131,1.131h1.131V36.564a1.131,1.131,0,1,0,0,2.262v9.047a1.131,1.131,0,1,0,0,2.262v9.047h-1.131a2.268,2.268,0,0,0-2.262,2.262v1.131a2.268,2.268,0,0,0,2.262,2.262h1.131v1.131a1.131,1.131,0,1,0,2.262,0V64.836h1.131a2.268,2.268,0,0,0,2.262-2.262V61.443A2.268,2.268,0,0,0,432.573,59.182ZM429.18,22.993v-1.81l2.262-2.262v4.071H429.18Zm0-7.464,2.262-2.262v2.488l-2.262,2.262Zm1.131-14.023a1.068,1.068,0,0,1,1.131,1.131V10.1l-2.262,2.262V2.637A1.069,1.069,0,0,1,430.311,1.506Zm2.262,61.069h-4.524V61.444h4.524Z" transform="translate(-39.504 2098.181)" fill="#fff"/>
    <path id="Path_19" data-name="Path 19" d="M278.448,396.946l3.619,8.369a3.48,3.48,0,0,0,3.166,2.036,2.28,2.28,0,0,0,1.244-.339,1.114,1.114,0,1,0-.9-2.036,1.122,1.122,0,0,1-1.47-.566l-3.619-8.369a1.114,1.114,0,0,0-2.036.9Z" transform="translate(88.384 1754.536)" fill="#fff"/>
    <path id="Path_20" data-name="Path 20" d="M137.914-.4A6.647,6.647,0,0,0,131,.468a.821.821,0,0,0-.208.147A6.07,6.07,0,0,0,128.98,2.99l-1.3,3.025a1.2,1.2,0,0,0-.174.255l-2.488,5.881a1.7,1.7,0,0,0-.056.216l-3.214,7.417-5.7-13.118a.835.835,0,0,0-.077-.282l-1.357-3.166q-.172-.344-.368-.667a6.606,6.606,0,0,0-3.477-3.065,6.906,6.906,0,0,0-5.2.113,6.529,6.529,0,0,0-3.619,3.732,6.906,6.906,0,0,0,.113,5.2l3.206,7.431a.819.819,0,0,0,.074.259l2.488,5.768a.8.8,0,0,0,.189.351l6.3,14.6-8.861,20.449a6.719,6.719,0,0,0,3.506,8.934,7.774,7.774,0,0,0,2.714.565,6.085,6.085,0,0,0,2.488-.452,6.529,6.529,0,0,0,3.732-3.619l3.86-8.907,3.83,8.907a6.921,6.921,0,0,0,6.22,4.071,6.709,6.709,0,0,0,2.6-.565,6.529,6.529,0,0,0,3.619-3.732,6.906,6.906,0,0,0-.113-5.2l-8.8-20.459,12.305-28.4a6.416,6.416,0,0,0,.113-5.2A6.529,6.529,0,0,0,137.914-.4ZM115.523,34.09l-2.933-6.8,4.8-11.858,3.112,7.232ZM112.356,4.008c0,.113.113.113.113.226L113.6,6.949l-4.733,11.721-1.256-2.91Zm-2.243,17.548,4.81-11.708,1.165,2.754-4.733,11.832ZM106.475,1.633a5.121,5.121,0,0,1,1.809-.339,4.537,4.537,0,0,1,1.7.339,5.186,5.186,0,0,1,.735.363l-4.369,10.835-2.246-5.2A4.57,4.57,0,0,1,106.475,1.633Zm21.755,8.8.316-.729,4.732,11.716-1.244,2.94L127.4,12.6Zm6.291,7.821L129.887,6.614l1.129-2.606c.044-.094.091-.184.139-.274l4.611,11.583ZM115.862,61.8a4.669,4.669,0,0,1-5.994,2.375,4.443,4.443,0,0,1-2.375-5.881L116.5,37.5a1.558,1.558,0,0,0,.15-.241l4.071-9.5,5.293-12.214,4.746,11.865-3.755,8.665a1.541,1.541,0,0,0-.177.278l-5.089,11.874Zm20.13-3.619a4.559,4.559,0,1,1-8.369,3.619L122.99,51.062,127.872,39.8Zm3.393-50.664-2.2,5.071-4.259-10.69a4.535,4.535,0,0,1,2.272-.6,5.622,5.622,0,0,1,1.809.339A4.443,4.443,0,0,1,139.385,7.514Z" transform="translate(241.81 2098.393)" fill="#fff"/>
    <path id="Path_21" data-name="Path 21" d="M219.36,256.694l3.167-7.238a3.451,3.451,0,0,0,0-2.6,3.532,3.532,0,0,0-1.809-1.809,3.451,3.451,0,0,0-2.6,0,3.532,3.532,0,0,0-1.809,1.809l-3.166,7.238a2.3,2.3,0,0,0,1.244,2.94l2.036.9a2.662,2.662,0,0,0,.9.226,1.633,1.633,0,0,0,.792-.226A2.241,2.241,0,0,0,219.36,256.694Zm-4.071-1.81,3.166-7.238a.989.989,0,0,1,1.018-.679c.113,0,.226.113.452.113a1.363,1.363,0,0,1,.565.565,1.239,1.239,0,0,1,0,.9l-3.166,7.238Z" transform="translate(145.097 1885.176)" fill="#fff"/>
    <path id="Path_22" data-name="Path 22" d="M171.278,396.33a1.122,1.122,0,0,0-1.47.565l-3.619,8.369a1.122,1.122,0,0,1-1.47.565,1.114,1.114,0,1,0-.9,2.036,5.679,5.679,0,0,0,1.357.226,3.282,3.282,0,0,0,3.053-1.923l3.619-8.369A1.123,1.123,0,0,0,171.278,396.33Z" transform="translate(188.316 1753.796)" fill="#fff"/>
  </g>
</svg>
