<svg xmlns="http://www.w3.org/2000/svg" width="61.484" height="62.197" viewBox="0 0 61.484 62.197">
  <path id="spa" d="M12.006,49.059a1.194,1.194,0,0,1-1.552.671c-4.574-1.814-7.35-4.143-8.028-6.735a1.2,1.2,0,1,1,2.313-.6c.47,1.8,2.813,3.617,6.6,5.117A1.2,1.2,0,0,1,12.006,49.059Zm4.062-12.513a1.2,1.2,0,0,0,1.55-1.82c-.593-.505-1.173-1.041-1.724-1.592-5.253-5.253-8-11.93-7.17-17.253a15.475,15.475,0,0,1,7.235.772,1.187,1.187,0,0,0,.343.118,26.435,26.435,0,0,1,9.674,6.28,29.289,29.289,0,0,1,2.1,2.332,1.2,1.2,0,1,0,1.862-1.5,31.708,31.708,0,0,0-2.267-2.524,29.007,29.007,0,0,0-10.009-6.621A11.816,11.816,0,0,1,18.715,9.05,12.322,12.322,0,0,1,24.568,12.5a29.351,29.351,0,0,0-.609,3.158,1.2,1.2,0,0,0,2.368.325c.8-5.857,3.347-10.774,6.864-13.342,3.517,2.568,6.06,7.484,6.864,13.34a1.2,1.2,0,0,0,2.369-.325,29.33,29.33,0,0,0-.608-3.154A12.333,12.333,0,0,1,47.668,9.05a11.816,11.816,0,0,1,1.056,5.691,29.013,29.013,0,0,0-10.009,6.621,31.635,31.635,0,0,0-2.267,2.524,1.2,1.2,0,0,0,1.862,1.5,29.3,29.3,0,0,1,2.095-2.332,26.429,26.429,0,0,1,9.673-6.28,1.19,1.19,0,0,0,.346-.119,15.478,15.478,0,0,1,7.234-.772c.834,5.323-1.917,12-7.17,17.253-.551.551-1.131,1.086-1.724,1.591a1.2,1.2,0,1,0,1.549,1.821c.641-.546,1.269-1.125,1.865-1.721,6.071-6.071,9.08-14.012,7.666-20.229a1.2,1.2,0,0,0-.9-.9,16.6,16.6,0,0,0-7.818.275A13.17,13.17,0,0,0,49.31,7.1a1.2,1.2,0,0,0-1.148-.55,13.5,13.5,0,0,0-7.117,3.408A18.839,18.839,0,0,0,33.828.183a1.2,1.2,0,0,0-1.273,0,18.84,18.84,0,0,0-7.217,9.772,13.488,13.488,0,0,0-7.116-3.408,1.2,1.2,0,0,0-1.148.55,13.167,13.167,0,0,0-1.816,6.874A16.607,16.607,0,0,0,7.44,13.7a1.2,1.2,0,0,0-.9.9c-1.414,6.217,1.595,14.158,7.666,20.229C14.8,35.421,15.428,36,16.069,36.546ZM15.5,45.894a1.2,1.2,0,0,0-.734-1.523c-3.607-1.261-5.76-2.855-5.76-4.263,0-.91.938-1.938,2.641-2.9a1.2,1.2,0,1,0-1.171-2.084c-2.562,1.44-3.861,3.115-3.861,4.979,0,2.581,2.546,4.836,7.361,6.52a1.194,1.194,0,0,0,1.523-.734Zm35.872-1.44a1.2,1.2,0,1,0,.769,2.264c4.987-1.693,7.622-3.979,7.622-6.61,0-1.8-1.21-3.421-3.6-4.827a1.2,1.2,0,1,0-1.214,2.06c1.56.919,2.419,1.9,2.419,2.768C57.374,41.532,55.075,43.2,51.374,44.454ZM45.046,53.19a2.2,2.2,0,0,1-2.2,2.2,1.2,1.2,0,1,0,0,2.391,4.592,4.592,0,0,0,4.586-4.587,1.2,1.2,0,1,0-2.391,0ZM62.978,41.536a1.2,1.2,0,0,0-1.459.854c-.47,1.8-2.813,3.617-6.6,5.117a1.2,1.2,0,1,0,.881,2.222c4.574-1.814,7.35-4.143,8.028-6.735A1.2,1.2,0,0,0,62.978,41.536Zm-21.24.519a1.181,1.181,0,0,1-1.18,1.18,1.2,1.2,0,0,0,0,2.391,3.575,3.575,0,0,0,3.571-3.571,1.2,1.2,0,0,0-2.391,0Zm-3.415-7.634h.312a1.2,1.2,0,0,0,0-2.391h-.312a1.2,1.2,0,0,0,0,2.391Zm12.346,13.7a8.807,8.807,0,0,1,1.674,5.18A8.9,8.9,0,0,1,43.453,62.2H22.931a8.887,8.887,0,0,1-4.292-16.671,7.181,7.181,0,0,1,4.2-9.669A5.539,5.539,0,0,1,27.4,27.172h11.59a5.542,5.542,0,0,1,0,11.083H27.4a5.512,5.512,0,0,1-2.1-.414c-.027,0-.055,0-.082,0A4.788,4.788,0,0,0,21.237,45.3a1.182,1.182,0,0,1,.111.157,4.786,4.786,0,0,0,3.863,1.961H41.173a4.784,4.784,0,0,0,3.051-8.474,1.2,1.2,0,0,1,1.528-1.839,7.175,7.175,0,0,1-4.579,12.7H25.211a7.162,7.162,0,0,1-5.249-2.286,6.5,6.5,0,0,0,2.969,12.278H43.453a6.508,6.508,0,0,0,6.5-6.5,6.43,6.43,0,0,0-1.223-3.782,1.2,1.2,0,0,1,1.939-1.4ZM24.246,32.713A3.154,3.154,0,0,0,27.4,35.864h11.59a3.151,3.151,0,0,0,0-6.3H27.4A3.155,3.155,0,0,0,24.246,32.713Z" transform="translate(-2.388 0.001)" fill="#fff"/>
</svg>
