<svg xmlns="http://www.w3.org/2000/svg" width="25.412" height="17.761" viewBox="0 0 25.412 17.761">
  <g id="takeoff-the-plane" transform="translate(0 -55.948)">
    <g id="Group_3452" data-name="Group 3452" transform="translate(0 55.948)">
      <g id="Group_3451" data-name="Group 3451" transform="translate(0 0)">
        <path id="Path_896" data-name="Path 896" d="M2.587,66.642h0a.6.6,0,0,0,.463,1.094l8.331-2.772L9.821,67.509a.482.482,0,0,0,.634.68l1.634-.849a.48.48,0,0,0,.126-.095l4.84-5.056,5.973-3.117c2.262-1.219,2-2.157,1.866-2.415a1.276,1.276,0,0,0-.853-.611,5.075,5.075,0,0,0-2.164.035,2.8,2.8,0,0,1-.665.046c-.639-.018-1.073.025-3.226,1.144L6.207,63.394,1.64,61.024a.6.6,0,0,0-.549,0l-.77.4a.6.6,0,0,0-.19.9L3.3,66.275Z" transform="translate(0 -55.948)" fill="#fff"/>
        <path id="Path_897" data-name="Path 897" d="M35.776,282.5h-22.3a1.135,1.135,0,0,0,0,2.271h22.3a1.135,1.135,0,0,0,0-2.271Z" transform="translate(-11.5 -267.011)" fill="#fff"/>
      </g>
    </g>
  </g>
</svg>
