<svg xmlns="http://www.w3.org/2000/svg" width="82.234" height="59.5" viewBox="0 0 82.234 59.5">
  <g id="map" transform="translate(0 -70.772)">
    <g id="Group_81" data-name="Group 81" transform="translate(0 70.772)">
      <g id="Group_80" data-name="Group 80" transform="translate(0 0)">
        <path id="Path_44" data-name="Path 44" d="M81.268,76.507,61.376,70.824a1.33,1.33,0,0,0-.732,0L41.117,76.4,21.591,70.824a1.33,1.33,0,0,0-.732,0L.966,76.507A1.332,1.332,0,0,0,0,77.788V128.94a1.332,1.332,0,0,0,1.7,1.281l19.527-5.579,19.526,5.579a1.331,1.331,0,0,0,.732,0l19.527-5.579,19.526,5.579a1.332,1.332,0,0,0,1.7-1.281V77.788A1.332,1.332,0,0,0,81.268,76.507Zm-78.6,2.286L19.892,73.87V83.908c-6.137-2.91-13.165-2.568-17.228-2V78.793Zm37.121,48.381-17.228-4.922V92.707a1.332,1.332,0,1,0-2.664,0v29.545L2.664,127.174V84.6c4.365-.659,13-1.163,19.154,3.582,3.906,3.01,6.128,7.674,6.6,13.863.7,9.106,6,11.385,11.363,12.668Zm2.664,0V115.3c5.314,1.124,9.9,2.2,11.369,8.627Zm17.228-25.826a10.275,10.275,0,0,0-8.614-5,6.494,6.494,0,0,0-5.577,2.838c-.75,1.214-1.338,3.274.123,6.194,2.2,4.4,8.4,7.043,12.4,7.043a6.807,6.807,0,0,0,1.551-.162c.041-.01.08-.022.12-.032v10.023l-3.291.94c-1.908-8.076-8.139-9.392-13.668-10.56-5.9-1.245-10.988-2.321-11.64-10.791-.536-6.973-3.1-12.278-7.634-15.769-.292-.225-.588-.438-.888-.642V73.87l17.228,4.922v28.834a1.332,1.332,0,1,0,2.664,0V78.793l3.715-1.061a11.458,11.458,0,0,0,.828,6.277,1.332,1.332,0,0,0,2.446-1.057,8.682,8.682,0,0,1-.362-6.051l10.6-3.029v27.478Zm0,7.7c0,.189,0,.448-.732.621-2.763.652-9.093-1.76-10.953-5.479a3.779,3.779,0,0,1-.239-3.6,3.885,3.885,0,0,1,3.311-1.574,7.822,7.822,0,0,1,6.517,4.006A13.047,13.047,0,0,1,59.677,109.048Zm2.664,13.2V97.07c7.341,6.708,8.166,14.84,2.734,25.963Zm17.228,4.922-11.9-3.4c3.229-6.765,4.255-12.58,3.133-17.751-1.016-4.682-3.788-8.758-8.466-12.446V73.87L79.57,78.793v48.381Z" transform="translate(0 -70.772)" fill="#fff"/>
      </g>
    </g>
    <g id="Group_83" data-name="Group 83" transform="translate(49.731 86.402)">
      <g id="Group_82" data-name="Group 82" transform="translate(0 0)">
        <path id="Path_45" data-name="Path 45" d="M314.981,171.549l1.19-1.189a1.332,1.332,0,0,0-1.884-1.884l-1.19,1.189-1.189-1.189a1.332,1.332,0,1,0-1.884,1.884l1.19,1.189-1.19,1.19a1.332,1.332,0,1,0,1.884,1.884l1.189-1.19,1.19,1.19a1.332,1.332,0,0,0,1.884-1.884Z" transform="translate(-309.634 -168.086)" fill="#fff"/>
      </g>
    </g>
  </g>
</svg>
