<svg xmlns="http://www.w3.org/2000/svg" width="61.641" height="64.978" viewBox="0 0 61.641 64.978">
  <g id="palm-tree" transform="translate(-13.147)">
    <g id="Group_84" data-name="Group 84" transform="translate(13.148 0)">
      <path id="Path_46" data-name="Path 46" d="M74.617,19.166c-1.949-2.951-4.341-4.554-6.918-4.636a7.634,7.634,0,0,0-4.826,1.694,7.628,7.628,0,0,0-.948-5.027c-1.361-2.19-3.946-3.459-7.476-3.67a1.035,1.035,0,0,0-.719,1.832,18.764,18.764,0,0,1,3.935,5.24,10.3,10.3,0,0,0-4.7-1.783,9.6,9.6,0,0,0-8.17,2.882,1.035,1.035,0,0,0,.715,1.716,57.539,57.539,0,0,1,8.2,1.247c-.072.032-.144.064-.215.1-2.21,1.088-3.71,3.247-4.459,6.416a1.035,1.035,0,0,0,1.485,1.155l4.943-2.577a50.335,50.335,0,0,0-8.006,17.868,1.035,1.035,0,1,0,2.009.5A50.08,50.08,0,0,1,56.2,26.327a28.7,28.7,0,0,1,3.667-4.536l.068,1.575a30.84,30.84,0,0,0-4.691,7.595c-2.175,4.726-4.845,12.779-5.364,24.473q-1.2-.108-2.426-.169c-.8-14.778-4.93-24.947-8.294-30.912A47.071,47.071,0,0,0,35.3,18.531L41.8,21.917a1.035,1.035,0,0,0,1.485-1.155c-.873-3.7-2.616-6.21-5.18-7.473a8.269,8.269,0,0,0-.794-.34,68.534,68.534,0,0,1,10.323-1.617,1.035,1.035,0,0,0,.715-1.716,11.181,11.181,0,0,0-9.512-3.351A12.092,12.092,0,0,0,32.7,8.824a23.348,23.348,0,0,1,5.077-6.99A1.035,1.035,0,0,0,37.062,0c-4.117.246-7.127,1.719-8.7,4.258a9.072,9.072,0,0,0-1.033,6.291A9.067,9.067,0,0,0,21.361,8.3c-2.988.1-5.769,1.965-8.042,5.406a1.035,1.035,0,0,0,1.224,1.54,23.318,23.318,0,0,1,8.6-.9,12.1,12.1,0,0,0-5.283,4.027A11.182,11.182,0,0,0,16,28.283a1.035,1.035,0,0,0,1.843.239,68.514,68.514,0,0,1,6.565-8.129,8.247,8.247,0,0,0-.1.857c-.19,2.852,1.115,5.619,3.878,8.224a1.035,1.035,0,0,0,1.743-.708l.326-7.517C33.325,25.156,40,35.775,40.969,55.267A52.573,52.573,0,0,0,28.248,57.4c-4.69,1.453-8.209,3.487-10.176,5.882a1.035,1.035,0,0,0,.8,1.691H69.64a1.035,1.035,0,0,0,.8-1.691C68.3,60.678,64.191,58.446,58.877,57a1.035,1.035,0,0,0-.543,2,25.953,25.953,0,0,1,8.71,3.91H21.474a24.448,24.448,0,0,1,7.387-3.527,52.9,52.9,0,0,1,15.4-2.129,58.07,58.07,0,0,1,9.758.8,1.035,1.035,0,1,0,.349-2.04q-1.2-.2-2.425-.359c.487-11.353,3.045-19.144,5.125-23.7a35.249,35.249,0,0,1,3.006-5.382l.235,5.409a1.035,1.035,0,0,0,1.743.708c2.369-2.234,3.488-4.613,3.324-7.071-.005-.079-.014-.157-.022-.236a57.513,57.513,0,0,1,5.181,6.474,1.035,1.035,0,0,0,.863.464,1.051,1.051,0,0,0,.133-.009,1.035,1.035,0,0,0,.847-.695A9.6,9.6,0,0,0,70.781,23.1a10.3,10.3,0,0,0-3.892-3.176,22.915,22.915,0,0,1,3.065.1,15.574,15.574,0,0,1,3.436.686,1.035,1.035,0,0,0,1.226-1.54ZM21.365,12.208a27.855,27.855,0,0,0-4.47.351,6.831,6.831,0,0,1,4.531-2.194,7.471,7.471,0,0,1,5.18,2.288A31.6,31.6,0,0,0,21.365,12.208ZM17.589,25.3a9.661,9.661,0,0,1,1.927-5.7,10.563,10.563,0,0,1,6.87-4.029A65.817,65.817,0,0,0,17.589,25.3Zm10.378.849a7.155,7.155,0,0,1-1.6-4.752,8.042,8.042,0,0,1,2-4.519Zm12.545-7.239-8.236-4.295a8.036,8.036,0,0,1,4.911.526A7.148,7.148,0,0,1,40.512,18.913ZM39.071,8.32a9.762,9.762,0,0,1,1.13-.065A9.559,9.559,0,0,1,44.969,9.5a65.829,65.829,0,0,0-12.823,2.75A10.564,10.564,0,0,1,39.071,8.32ZM29.5,10.981a7.468,7.468,0,0,1,.611-5.63,6.831,6.831,0,0,1,4.167-2.826A29.852,29.852,0,0,0,29.5,10.981Zm14.752,44.2c-.408,0-.814,0-1.219.012C42.367,41.711,39,32.423,36.258,26.966a35.544,35.544,0,0,0-5.877-8.731l.085-1.959a37.3,37.3,0,0,1,6.948,9.2c3.216,5.734,7.163,15.5,7.96,29.716C45,55.188,44.63,55.183,44.256,55.183ZM51.874,23.29A5.668,5.668,0,0,1,54.4,20.621a5.825,5.825,0,0,1,2.6-.563,8.149,8.149,0,0,1,.965.059Zm-3.584-7.68a8.073,8.073,0,0,1,4.434-.739,8.623,8.623,0,0,1,5.355,2.823A56.035,56.035,0,0,0,48.291,15.609Zm12.477.764a25.459,25.459,0,0,0-3.529-6.244,5.368,5.368,0,0,1,2.928,2.161A5.826,5.826,0,0,1,60.767,16.373Zm1.491,12.909-.3-6.865a6.347,6.347,0,0,1,1.346,3.335A5.663,5.663,0,0,1,62.258,29.282Zm6.864-4.949A8.071,8.071,0,0,1,70.7,28.542,56.043,56.043,0,0,0,64,21.11,8.626,8.626,0,0,1,69.122,24.333ZM63.8,18.121A5.914,5.914,0,0,1,67.5,16.6l.137,0a5.37,5.37,0,0,1,3.336,1.454A25.459,25.459,0,0,0,63.8,18.121Z" transform="translate(-13.148 0)" fill="#fff"/>
    </g>
  </g>
</svg>
