<svg id="Group_3323" data-name="Group 3323" xmlns="http://www.w3.org/2000/svg" width="18.682" height="15.175" viewBox="0 0 18.682 15.175">
  <g id="Group_3320" data-name="Group 3320" transform="translate(0)">
    <g id="twitter-logo-silhouette">
      <g id="Group_2873" data-name="Group 2873">
        <path id="Path_825" data-name="Path 825" d="M18.682,59.236a7.653,7.653,0,0,1-2.2.6,3.848,3.848,0,0,0,1.684-2.119,7.726,7.726,0,0,1-2.435.93A3.835,3.835,0,0,0,9.2,62.145a10.88,10.88,0,0,1-7.9-4,3.837,3.837,0,0,0,1.186,5.115,3.833,3.833,0,0,1-1.736-.481v.048a3.836,3.836,0,0,0,3.074,3.758,3.882,3.882,0,0,1-1.01.134,3.679,3.679,0,0,1-.721-.071,3.834,3.834,0,0,0,3.579,2.662A7.689,7.689,0,0,1,.915,70.944,8.145,8.145,0,0,1,0,70.891a10.833,10.833,0,0,0,5.874,1.724,10.828,10.828,0,0,0,10.9-10.9l-.013-.5A7.653,7.653,0,0,0,18.682,59.236Z" transform="translate(-0.001 -57.441)" fill="#fff"/>
      </g>
    </g>
  </g>
</svg>
