<svg xmlns="http://www.w3.org/2000/svg" width="46.921" height="59.5" viewBox="0 0 46.921 59.5">
  <g id="engagement-ring" transform="translate(-54.123)">
    <g id="Group_51" data-name="Group 51" transform="translate(61.962 23.258)">
      <g id="Group_50" data-name="Group 50">
        <path id="Path_30" data-name="Path 30" d="M137.145,200.139a15.565,15.565,0,0,0-4.474,30.472,1.161,1.161,0,1,0,.667-2.225,13.24,13.24,0,1,1,7.615,0,1.161,1.161,0,1,0,.667,2.225,15.684,15.684,0,0,0,7.949-5.535,15.564,15.564,0,0,0-12.423-24.937Z" transform="translate(-121.582 -200.139)" fill="#fff"/>
      </g>
    </g>
    <g id="Group_53" data-name="Group 53" transform="translate(76.363 52.06)">
      <g id="Group_52" data-name="Group 52">
        <path id="Path_31" data-name="Path 31" d="M246.663,447.976a1.161,1.161,0,0,0-1.161,1.161v.013a1.161,1.161,0,0,0,2.323,0v-.013A1.161,1.161,0,0,0,246.663,447.976Z" transform="translate(-245.502 -447.976)" fill="#fff"/>
      </g>
    </g>
    <g id="Group_55" data-name="Group 55" transform="translate(56.852)">
      <g id="Group_54" data-name="Group 54">
        <path id="Path_32" data-name="Path 32" d="M100.693,18.3s8.675-10.107,8.674-10.107h0a.146.146,0,0,0,.013-.014,1.147,1.147,0,0,0,.128-1.294l-3.4-6.272A1.161,1.161,0,0,0,105.085,0H91.495a1.161,1.161,0,0,0-1.02.606L87.058,6.877a1.161,1.161,0,0,0,.021,1.149c.035.058,8.8,10.269,8.8,10.269a20.673,20.673,0,1,0,4.815,0Zm3.7-15.973,2.143,3.949H102.65l-.713-3.949h2.456Zm-1.83,6.272h3.4l-5.1,5.936ZM92.185,2.323h2.448l-.716,3.949H90.033ZM90.607,8.594h3.4l1.7,5.94Zm6.386-6.272h2.583l.713,3.949H96.277Zm3.154,6.272-1.86,6.5-1.86-6.5ZM98.283,57.177a18.35,18.35,0,1,1,18.35-18.35A18.371,18.371,0,0,1,98.283,57.177Z" transform="translate(-77.61)" fill="#fff"/>
      </g>
    </g>
    <g id="Group_57" data-name="Group 57" transform="translate(92.798 3.31)">
      <g id="Group_56" data-name="Group 56">
        <path id="Path_33" data-name="Path 33" d="M394,31.445h-1.8v-1.8a1.161,1.161,0,1,0-2.323,0v1.8h-1.8a1.161,1.161,0,0,0,0,2.323h1.8v1.8a1.161,1.161,0,1,0,2.323,0v-1.8H394a1.161,1.161,0,1,0,0-2.323Z" transform="translate(-386.92 -28.483)" fill="#fff"/>
      </g>
    </g>
    <g id="Group_59" data-name="Group 59" transform="translate(54.123 12.137)">
      <g id="Group_58" data-name="Group 58">
        <path id="Path_34" data-name="Path 34" d="M61.208,107.4h-1.8v-1.8a1.161,1.161,0,1,0-2.323,0v1.8h-1.8a1.161,1.161,0,0,0,0,2.323h1.8v1.8a1.161,1.161,0,1,0,2.323,0v-1.8h1.8a1.161,1.161,0,1,0,0-2.323Z" transform="translate(-54.123 -104.436)" fill="#fff"/>
      </g>
    </g>
  </g>
</svg>
